<svg xmlns="http://www.w3.org/2000/svg" width="1024" height="1024" viewBox="0 0 1024 1024">
  <defs>
    <linearGradient id="face" x1="512" y1="72" x2="512" y2="952" gradientUnits="userSpaceOnUse">
      <stop stop-color="#FFFFFF"/>
      <stop offset=".48" stop-color="#FBFBFB"/>
      <stop offset="1" stop-color="#E3E3E3"/>
    </linearGradient>
    <linearGradient id="highlight" x1="512" y1="854" x2="512" y2="510" gradientUnits="userSpaceOnUse">
      <stop stop-color="#FFFFFF" stop-opacity=".55"/>
      <stop offset="1" stop-color="#FFFFFF" stop-opacity="0"/>
    </linearGradient>
    <filter id="shadow" x="-15%" y="-15%" width="130%" height="145%">
      <feDropShadow dx="0" dy="18" stdDeviation="24" flood-opacity=".22"/>
    </filter>
    <clipPath id="faceClip">
      <rect x="72" y="72" width="880" height="880" rx="205"/>
    </clipPath>
  </defs>
  <rect x="72" y="72" width="880" height="880" rx="205" fill="url(#face)" filter="url(#shadow)"/>
  <g clip-path="url(#faceClip)">
    <ellipse cx="512" cy="480" rx="592" ry="345" fill="url(#highlight)"/>
    <ellipse cx="512" cy="1030" rx="442" ry="245" fill="#000" opacity=".035"/>
  </g>
  <rect x="73.5" y="73.5" width="877" height="877" rx="203.5" fill="none" stroke="#000" stroke-opacity=".1" stroke-width="3"/>
  <path d="M244 512c72 0 90-178 178-178s106 356 194 356 106-178 178-178" fill="none" stroke="#000" stroke-width="68" stroke-linecap="round"/>
  <path d="M225 805c155 71 419 71 574 0" fill="none" stroke="#FFF" stroke-opacity=".44" stroke-width="8" stroke-linecap="round"/>
</svg>
